<svg width="496" height="501" viewBox="0 0 496 501" xmlns="http://www.w3.org/2000/svg" lang="en" xml:lang="en"><rect x="2" y="2" stroke-width="4" rx="6" width="492" height="497" stroke="rgba(56,139,253,0.4)" fill="#0d1117"/><g font-weight="600" font-size="110pt" font-family="Verdana,Geneva,DejaVu Sans,sans-serif" text-rendering="geometricPrecision"><text x="496" y="301" lengthAdjust="spacingAndGlyphs" textLength="3040" transform="scale(0.123)" fill="#58a6ff">Wildan Haifan Jadid's GitHub Activity</text><svg x="15" y="15" width="25" height="25" viewBox="0 0 16 16"><path fill="#ffffff" fill-rule="evenodd" d="M8 0C3.58 0 0 3.58 0 8c0 3.54 2.29 6.53 5.47 7.59.4.07.55-.17.55-.38 0-.19-.01-.82-.01-1.49-2.01.37-2.53-.49-2.69-.94-.09-.23-.48-.94-.82-1.13-.28-.15-.68-.52-.01-.53.63-.01 1.08.58 1.23.82.72 1.21 1.87.87 2.33.66.07-.52.28-.87.51-1.07-1.78-.2-3.64-.89-3.64-3.95 0-.87.31-1.59.82-2.15-.08-.2-.36-1.02.08-2.12 0 0 .67-.21 2.2.82.64-.18 1.32-.27 2-.27.68 0 1.36.09 2 .27 1.53-1.04 2.2-.82 2.2-.82.44 1.1.16 1.92.08 2.12.51.56.82 1.27.82 2.15 0 3.07-1.87 3.75-3.65 3.95.29.25.54.73.54 1.48 0 1.07-.01 1.93-.01 2.2 0 .21.15.46.55.38A8.013 8.013 0 0016 8c0-4.42-3.58-8-8-8z"/></svg><svg x="456" y="15" width="25" height="25" viewBox="0 0 16 16"><path fill="#ffffff" fill-rule="evenodd" d="M8 0C3.58 0 0 3.58 0 8c0 3.54 2.29 6.53 5.47 7.59.4.07.55-.17.55-.38 0-.19-.01-.82-.01-1.49-2.01.37-2.53-.49-2.69-.94-.09-.23-.48-.94-.82-1.13-.28-.15-.68-.52-.01-.53.63-.01 1.08.58 1.23.82.72 1.21 1.87.87 2.33.66.07-.52.28-.87.51-1.07-1.78-.2-3.64-.89-3.64-3.95 0-.87.31-1.59.82-2.15-.08-.2-.36-1.02.08-2.12 0 0 .67-.21 2.2.82.64-.18 1.32-.27 2-.27.68 0 1.36.09 2 .27 1.53-1.04 2.2-.82 2.2-.82.44 1.1.16 1.92.08 2.12.51.56.82 1.27.82 2.15 0 3.07-1.87 3.75-3.65 3.95.29.25.54.73.54 1.48 0 1.07-.01 1.93-.01 2.2 0 .21.15.46.55.38A8.013 8.013 0 0016 8c0-4.42-3.58-8-8-8z"/></svg><g transform="translate(0, 60)" fill="#c9d1d9"><g transform="translate(15, 0)"><g transform="scale(0.095)"><text x="0" y="132" textLength="3652" lengthAdjust="spacingAndGlyphs">Language Distribution in Public Repositories</text></g></g><g transform="translate(263, 21)"><circle cx="102" cy="102" r="102" fill="#ffffff"/></g><g transform="translate(264, 22)"><path fill-rule="evenodd" fill="#3572A5" d="M 0.0,101.00000000000001 A 101 101 0 1 1 48.2019354149117 187.10089648818325 L 101,101 Z"/><path fill-rule="evenodd" fill="#3178c6" d="M 48.2019354149117,187.10089648818325 A 101 101 0 0 1 22.369611181256033 164.3897622192507 L 101,101 Z"/><path fill-rule="evenodd" fill="#fedf5b" d="M 22.369611181256033,164.3897622192507 A 101 101 0 0 1 11.806103738908206 148.38616749395962 L 101,101 Z"/><path fill-rule="evenodd" fill="#f1e05a" d="M 11.806103738908206,148.38616749395962 A 101 101 0 0 1 5.27677366885959 133.21899968585723 L 101,101 Z"/><path fill-rule="evenodd" fill="#f34b7d" d="M 5.27677366885959,133.21899968585723 A 101 101 0 0 1 3.626013962731662 127.8198964057259 L 101,101 Z"/><path fill-rule="evenodd" fill="#555555" d="M 3.626013962731662,127.8198964057259 A 101 101 0 0 1 2.322235688895944 122.5336673737243 L 101,101 Z"/><path fill-rule="evenodd" fill="#00ADD8" d="M 2.322235688895944,122.5336673737243 A 101 101 0 0 1 1.4647772718847705 118.13882832822868 L 101,101 Z"/><path fill-rule="evenodd" fill="#7355dd" d="M 1.4647772718847705,118.13882832822868 A 101 101 0 0 1 0.9580073666116533 114.87802975717631 L 101,101 Z"/><path fill-rule="evenodd" fill="#00B4AB" d="M 0.9580073666116533,114.87802975717631 A 101 101 0 0 1 0.5947228891268708 111.94441996127594 L 101,101 Z"/><path fill-rule="evenodd" fill="#f7523f" d="M 0.5947228891268708,111.94441996127594 A 101 101 0 0 1 0.3238444055170362 109.08156511546225 L 101,101 Z"/><path fill-rule="evenodd" fill="#4F5D95" d="M 0.3238444055170362,109.08156511546225 A 101 101 0 0 1 0.19468977893195927 107.26812820818422 L 101,101 Z"/><path fill-rule="evenodd" fill="#e34c26" d="M 0.19468977893195927,107.26812820818422 A 101 101 0 0 1 0.1390449785925938 106.29790073233086 L 101,101 Z"/><path fill-rule="evenodd" fill="#663399" d="M 0.1390449785925938,106.29790073233086 A 101 101 0 0 1 0.09654248202586757 105.41500406776595 L 101,101 Z"/><path fill-rule="evenodd" fill="#222c37" d="M 0.09654248202586757,105.41500406776595 A 101 101 0 0 1 0.06692328834380135 104.67614275007443 L 101,101 Z"/><path fill-rule="evenodd" fill="#89e051" d="M 0.06692328834380135,104.67614275007443 A 101 101 0 0 1 0.04631587166157658 104.05837553542271 L 101,101 Z"/><path fill-rule="evenodd" fill="#b07219" d="M 0.04631587166157658,104.05837553542271 A 101 101 0 0 1 0.03155040249889396 103.52431889365802 L 101,101 Z"/><path fill-rule="evenodd" fill="#A97BFF" d="M 0.03155040249889396,103.52431889365802 A 101 101 0 0 1 0.02090526877154275 103.05485455971701 L 101,101 Z"/><path fill-rule="evenodd" fill="#4d41b1" d="M 0.02090526877154275,103.05485455971701 A 101 101 0 0 1 0.015110782479510476 102.7470402757562 L 101,101 Z"/><path fill-rule="evenodd" fill="#007800" d="M 0.015110782479510476,102.7470402757562 A 101 101 0 0 1 0.010607057953365029 102.46373262479872 L 101,101 Z"/><path fill-rule="evenodd" fill="#DA3434" d="M 0.010607057953365029,102.46373262479872 A 101 101 0 0 1 0.007000031743842783 102.18909941208115 L 101,101 Z"/><path fill-rule="evenodd" fill="#DA5B0B" d="M 0.007000031743842783,102.18909941208115 A 101 101 0 0 1 0.004335479706838896 101.93581413987849 L 101,101 Z"/><path fill-rule="evenodd" fill="#aace60" d="M 0.004335479706838896,101.93581413987849 A 101 101 0 0 1 0.0030379485523326366 101.78336222683998 L 101,101 Z"/><path fill-rule="evenodd" fill="#427819" d="M 0.0030379485523326366,101.78336222683998 A 101 101 0 0 1 0.002233893930991826 101.67174517771137 L 101,101 Z"/><path fill-rule="evenodd" fill="#384d54" d="M 0.002233893930991826,101.67174517771137 A 101 101 0 0 1 0.0018203645037715432 101.60639122357932 L 101,101 Z"/><path fill-rule="evenodd" fill="#336790" d="M 0.0018203645037715432,101.60639122357932 A 101 101 0 0 1 0.001618939107913775 101.57185931734612 L 101,101 Z"/><path fill-rule="evenodd" fill="#F05138" d="M 0.001618939107913775,101.57185931734612 A 101 101 0 0 1 0.00153054392880847 101.55602835454025 L 101,101 Z"/><path fill-rule="evenodd" fill="#7e858d" d="M 0.00153054392880847,101.55602835454025 A 101 101 0 0 1 0.0015039760066173358 101.55118135980341 L 101,101 Z"/><path fill-rule="evenodd" fill="#878787" d="M 0.0015039760066173358,101.55118135980341 A 101 101 0 0 1 0.0 101.00000000000004 L 101,101 Z"/></g><g transform="translate(15, 21)"><rect x="0.5" y="0.5" rx="2" width="15" height="15" fill="#3572A5" stroke-width="1" stroke="#ffffff"/><text transform="scale(0.095)" x="263" y="132" textLength="1254" lengthAdjust="spacingAndGlyphs">Python 83.75%</text></g><g transform="translate(15, 42)"><rect x="0.5" y="0.5" rx="2" width="15" height="15" fill="#3178c6" stroke-width="1" stroke="#ffffff"/><text transform="scale(0.095)" x="263" y="132" textLength="1462" lengthAdjust="spacingAndGlyphs">TypeScript 5.45%</text></g><g transform="translate(15, 63)"><rect x="0.5" y="0.5" rx="2" width="15" height="15" fill="#fedf5b" stroke-width="1" stroke="#ffffff"/><text transform="scale(0.095)" x="263" y="132" textLength="1166" lengthAdjust="spacingAndGlyphs">Cython 3.03%</text></g><g transform="translate(15, 84)"><rect x="0.5" y="0.5" rx="2" width="15" height="15" fill="#f1e05a" stroke-width="1" stroke="#ffffff"/><text transform="scale(0.095)" x="263" y="132" textLength="1412" lengthAdjust="spacingAndGlyphs">JavaScript 2.60%</text></g><g transform="translate(15, 105)"><rect x="0.5" y="0.5" rx="2" width="15" height="15" fill="#f34b7d" stroke-width="1" stroke="#ffffff"/><text transform="scale(0.095)" x="263" y="132" textLength="969" lengthAdjust="spacingAndGlyphs">C++ 0.89%</text></g><g transform="translate(15, 126)"><rect x="0.5" y="0.5" rx="2" width="15" height="15" fill="#555555" stroke-width="1" stroke="#ffffff"/><text transform="scale(0.095)" x="263" y="132" textLength="693" lengthAdjust="spacingAndGlyphs">C 0.86%</text></g><g transform="translate(15, 147)"><rect x="0.5" y="0.5" rx="2" width="15" height="15" fill="#00ADD8" stroke-width="1" stroke="#ffffff"/><text transform="scale(0.095)" x="263" y="132" textLength="806" lengthAdjust="spacingAndGlyphs">Go 0.71%</text></g><g transform="translate(15, 168)"><rect x="0.5" y="0.5" rx="2" width="15" height="15" fill="#7355dd" stroke-width="1" stroke="#ffffff"/><text transform="scale(0.095)" x="263" y="132" textLength="831" lengthAdjust="spacingAndGlyphs">C# 0.52%</text></g><g transform="translate(15, 189)"><rect x="0.5" y="0.5" rx="2" width="15" height="15" fill="#00B4AB" stroke-width="1" stroke="#ffffff"/><text transform="scale(0.095)" x="263" y="132" textLength="938" lengthAdjust="spacingAndGlyphs">Dart 0.47%</text></g><g transform="translate(15, 210)"><rect x="0.5" y="0.5" rx="2" width="15" height="15" fill="#f7523f" stroke-width="1" stroke="#ffffff"/><text transform="scale(0.095)" x="263" y="132" textLength="1044" lengthAdjust="spacingAndGlyphs">Blade 0.45%</text></g><g transform="translate(15, 231)"><rect x="0.5" y="0.5" rx="2" width="15" height="15" fill="#4F5D95" stroke-width="1" stroke="#ffffff"/><text transform="scale(0.095)" x="263" y="132" textLength="900" lengthAdjust="spacingAndGlyphs">PHP 0.29%</text><rect x="248.5" y="0.5" rx="2" width="15" height="15" fill="#e34c26" stroke-width="1" stroke="#ffffff"/><text transform="scale(0.095)" x="2874" y="132" textLength="1036" lengthAdjust="spacingAndGlyphs">HTML 0.15%</text></g><g transform="translate(15, 252)"><rect x="0.5" y="0.5" rx="2" width="15" height="15" fill="#663399" stroke-width="1" stroke="#ffffff"/><text transform="scale(0.095)" x="263" y="132" textLength="903" lengthAdjust="spacingAndGlyphs">CSS 0.14%</text><rect x="248.5" y="0.5" rx="2" width="15" height="15" fill="#222c37" stroke-width="1" stroke="#ffffff"/><text transform="scale(0.095)" x="2874" y="132" textLength="1460" lengthAdjust="spacingAndGlyphs">ShaderLab 0.12%</text></g><g transform="translate(15, 273)"><rect x="0.5" y="0.5" rx="2" width="15" height="15" fill="#89e051" stroke-width="1" stroke="#ffffff"/><text transform="scale(0.095)" x="263" y="132" textLength="982" lengthAdjust="spacingAndGlyphs">Shell 0.10%</text><rect x="248.5" y="0.5" rx="2" width="15" height="15" fill="#b07219" stroke-width="1" stroke="#ffffff"/><text transform="scale(0.095)" x="2874" y="132" textLength="933" lengthAdjust="spacingAndGlyphs">Java 0.08%</text></g><g transform="translate(15, 294)"><rect x="0.5" y="0.5" rx="2" width="15" height="15" fill="#A97BFF" stroke-width="1" stroke="#ffffff"/><text transform="scale(0.095)" x="263" y="132" textLength="1048" lengthAdjust="spacingAndGlyphs">Kotlin 0.07%</text><rect x="248.5" y="0.5" rx="2" width="15" height="15" fill="#4d41b1" stroke-width="1" stroke="#ffffff"/><text transform="scale(0.095)" x="2874" y="132" textLength="1178" lengthAdjust="spacingAndGlyphs">Fortran 0.05%</text></g><g transform="translate(15, 315)"><rect x="0.5" y="0.5" rx="2" width="15" height="15" fill="#007800" stroke-width="1" stroke="#ffffff"/><text transform="scale(0.095)" x="263" y="132" textLength="1113" lengthAdjust="spacingAndGlyphs">Meson 0.04%</text><rect x="248.5" y="0.5" rx="2" width="15" height="15" fill="#DA3434" stroke-width="1" stroke="#ffffff"/><text transform="scale(0.095)" x="2874" y="132" textLength="1134" lengthAdjust="spacingAndGlyphs">CMake 0.04%</text></g><g transform="translate(15, 336)"><rect x="0.5" y="0.5" rx="2" width="15" height="15" fill="#DA5B0B" stroke-width="1" stroke="#ffffff"/><text transform="scale(0.095)" x="263" y="132" textLength="2020" lengthAdjust="spacingAndGlyphs">Jupyter Notebook 0.04%</text><rect x="248.5" y="0.5" rx="2" width="15" height="15" fill="#aace60" stroke-width="1" stroke="#ffffff"/><text transform="scale(0.095)" x="2874" y="132" textLength="990" lengthAdjust="spacingAndGlyphs">HLSL 0.02%</text></g><g transform="translate(15, 357)"><rect x="0.5" y="0.5" rx="2" width="15" height="15" fill="#427819" stroke-width="1" stroke="#ffffff"/><text transform="scale(0.095)" x="263" y="132" textLength="1272" lengthAdjust="spacingAndGlyphs">Makefile 0.02%</text><rect x="248.5" y="0.5" rx="2" width="15" height="15" fill="#384d54" stroke-width="1" stroke="#ffffff"/><text transform="scale(0.095)" x="2874" y="132" textLength="1414" lengthAdjust="spacingAndGlyphs">Dockerfile 0.01%</text></g><g transform="translate(15, 378)"><rect x="0.5" y="0.5" rx="2" width="15" height="15" fill="#336790" stroke-width="1" stroke="#ffffff"/><text transform="scale(0.095)" x="263" y="132" textLength="1305" lengthAdjust="spacingAndGlyphs">PLpgSQL 0.01%</text><rect x="248.5" y="0.5" rx="2" width="15" height="15" fill="#F05138" stroke-width="1" stroke="#ffffff"/><text transform="scale(0.095)" x="2874" y="132" textLength="987" lengthAdjust="spacingAndGlyphs">Swift 0.00%</text></g><g transform="translate(15, 399)"><rect x="0.5" y="0.5" rx="2" width="15" height="15" fill="#7e858d" stroke-width="1" stroke="#ffffff"/><text transform="scale(0.095)" x="263" y="132" textLength="1017" lengthAdjust="spacingAndGlyphs">Mako 0.00%</text><rect x="248.5" y="0.5" rx="2" width="15" height="15" fill="#878787" stroke-width="1" stroke="#ffffff"/><text transform="scale(0.095)" x="2874" y="132" textLength="988" lengthAdjust="spacingAndGlyphs">Hack 0.00%</text></g></g></g></svg>